<?xml version="1.0" encoding="utf-8"?>
<!-- Generator: Adobe Illustrator 16.0.4, SVG Export Plug-In . SVG Version: 6.00 Build 0)  -->
<!DOCTYPE svg PUBLIC "-//W3C//DTD SVG 1.1//EN" "http://www.w3.org/Graphics/SVG/1.1/DTD/svg11.dtd">
<svg version="1.1" id="レイヤー_1" xmlns="http://www.w3.org/2000/svg" xmlns:xlink="http://www.w3.org/1999/xlink" x="0px"
	 y="0px" width="216px" height="166px" viewBox="-0.5 0 216 166" enable-background="new -0.5 0 216 166" xml:space="preserve">
<g>
	<g>
		<g>
			<path fill="#969B99" d="M80.002,1.464c2.44-1.932,6.104-1.588,8.141,0.766l13.904,16.061c2.038,2.354,1.159,4.193-1.952,4.088
				l-38.949-1.314c-3.111-0.104-3.66-1.771-1.219-3.704L80.002,1.464z"/>
		</g>
		<g>
			<path fill="#969B99" d="M99.759,63.898c-2.932-1.045-3.884-3.996-2.116-6.557l13.075-18.936c1.769-2.562,4.464-2.438,5.989,0.276
				l19.209,34.16c1.525,2.713,0.375,4.078-2.557,3.033L99.759,63.898z"/>
		</g>
		<g>
			<path fill="#969B99" d="M80.562,61.746c2.3,2.097,4.167,6.359,4.147,9.472l-0.14,22.337c-0.02,3.111-1.121,3.354-2.447,0.538
				L59.017,45.028c-1.326-2.816-0.529-3.404,1.771-1.308L80.562,61.746z"/>
		</g>
		<g>
			<path fill="#969B99" d="M128.479,28.252c-2.891-1.155-3.004-3.293-0.254-4.751l14.463-7.666c2.75-1.458,6.051-0.33,7.332,2.506
				l7.892,17.45c1.282,2.836-0.033,4.212-2.925,3.057L128.479,28.252z"/>
		</g>
	</g>
	<g>
		<g>
			<path fill="#231815" d="M91.093,53.544c-1.769,2.562-5.098,2.941-7.397,0.845l-24.309-22.16c-2.3-2.097-1.637-3.727,1.474-3.622
				l40.713,1.374c3.111,0.105,4.209,2.287,2.441,4.849L91.093,53.544z"/>
		</g>
		<g>
			<path fill="#231815" d="M92.232,74.899c0.02-3.113,2.435-4.804,5.366-3.759l34.658,12.353c2.934,1.046,3.081,3.094,0.331,4.553
				l-35.574,18.869c-2.75,1.459-4.983,0.104-4.964-3.007L92.232,74.899z"/>
		</g>
		<g>
			<path fill="#231815" d="M120.148,19.242c-2.75,1.458-6.668,0.725-8.705-1.628L99.119,3.378c-2.037-2.353-1.226-3.694,1.804-2.98
				l32.401,7.64c3.029,0.715,3.258,2.492,0.508,3.95L120.148,19.242z"/>
		</g>
		<g>
			<path fill="#231815" d="M149.684,72.069c-1.521,2.715-4.016,2.717-5.541,0.004l-18.427-32.766
				c-1.524-2.713-0.403-3.999,2.491-2.856l28.673,11.31c2.896,1.142,4.021,4.298,2.497,7.013L149.684,72.069z"/>
		</g>
	</g>
	<g>
		<path fill="#231815" d="M12.786,141.215c-6.884,0-12.483,5.477-12.483,12.206c0,6.821,5.512,12.372,12.289,12.372
			c6.776,0,12.288-5.514,12.288-12.289C24.879,146.843,19.341,141.215,12.786,141.215z M12.758,144.861
			c4.595,0,8.477,3.957,8.477,8.643c0,4.768-3.878,8.645-8.644,8.645c-4.847,0-8.644-3.834-8.644-8.728
			C3.947,148.621,7.817,144.861,12.758,144.861z"/>
		<path fill="#231815" d="M120.402,159.355c-0.213,0.438-0.9,0.438-1.113,0l-8.737-17.918h-3.301v24.133h3.644v-12.418
			c0-0.362,0.26-0.553,0.48-0.604c0.219-0.053,0.538,0.006,0.697,0.332l6.197,12.688h3.151l6.198-12.688
			c0.158-0.326,0.475-0.385,0.695-0.332c0.223,0.051,0.48,0.24,0.48,0.604v12.418h3.645v-24.133h-3.301L120.402,159.355z"/>
		<path fill="#231815" d="M150.648,141.215c-6.883,0-12.482,5.477-12.482,12.206c0,6.821,5.514,12.372,12.288,12.372
			c6.776,0,12.289-5.514,12.289-12.289C162.743,146.843,157.205,141.215,150.648,141.215z M159.1,153.504
			c0,4.768-3.879,8.645-8.646,8.645c-4.847,0-8.644-3.834-8.644-8.728c0-4.8,3.871-8.56,8.812-8.56
			C155.217,144.861,159.1,148.818,159.1,153.504z"/>
		<path fill="#231815" d="M185.4,157.258c0,0.326-0.217,0.518-0.418,0.588c-0.203,0.068-0.49,0.051-0.69-0.207l-12.558-16.102
			l-0.076-0.1h-3.176v24.133h3.645v-15.844c0-0.326,0.217-0.517,0.418-0.586c0.203-0.07,0.491-0.053,0.689,0.207l12.558,16.123
			l0.077,0.1h3.176v-24.133H185.4V157.258z"/>
		<path fill="#231815" d="M211.236,145.176c-2.336-2.375-5.569-3.738-8.873-3.738h-6.557v24.133h6.825
			c6.541,0,11.953-5.319,12.063-11.857C214.75,150.532,213.521,147.5,211.236,145.176z M211.048,153.83
			c-0.17,4.463-4.04,8.096-8.629,8.096h-2.437c-0.293,0-0.531-0.238-0.531-0.531v-15.778c0-0.293,0.238-0.531,0.531-0.531h2.649
			c2.306,0,4.46,0.917,6.063,2.584C210.3,149.332,211.135,151.521,211.048,153.83z"/>
		<path fill="#231815" d="M78.964,155.174h5.428c0.342,0,0.62,0.277,0.62,0.619v3.246c0,0.447-0.192,0.865-0.526,1.143
			c-1.548,1.287-3.449,1.967-5.498,1.967c-2.521,0-4.911-1.102-6.56-3.02c-1.645-1.917-2.366-4.462-1.98-6.984
			c0.642-4.187,4.297-7.283,8.55-7.283c0.07,0,0.141,0,0.212,0.003c2.378,0.058,4.506,1.022,6.153,2.788l0.182,0.195l2.581-2.58
			l-0.172-0.183c-2.692-2.851-6.482-4.229-10.399-3.789c-5.65,0.638-10.186,5.212-10.785,10.877
			c-0.373,3.529,0.721,6.918,3.083,9.543c2.332,2.591,5.661,4.077,9.135,4.077c3.681,0,7.127-1.613,9.458-4.43l0.21-0.256v-9.58
			h-9.693L78.964,155.174L78.964,155.174z"/>
		<rect x="56.66" y="141.438" fill="#231815" width="3.644" height="24.133"/>
		<rect x="95.919" y="141.438" fill="#231815" width="3.645" height="24.133"/>
		<path fill="#231815" d="M43.081,155.174h0.586c3.787,0,6.867-3.081,6.867-6.867c0-3.787-3.08-6.869-6.867-6.869H30.618v24.133
			h3.645v-9.776c0-0.342,0.278-0.62,0.62-0.62l1.609,0.001c0.466,0,0.896,0.21,1.182,0.577l7.647,9.818h4.6l-7.328-9.396
			c-0.148-0.19-0.174-0.435-0.067-0.653C42.631,155.305,42.839,155.174,43.081,155.174z M43.667,151.527h-8.785
			c-0.342,0-0.62-0.277-0.62-0.619v-5.206c0-0.343,0.278-0.618,0.62-0.618h8.785c1.777,0,3.223,1.445,3.223,3.223
			C46.891,150.083,45.444,151.527,43.667,151.527z"/>
	</g>
</g>
</svg>
