<?xml version="1.0" encoding="utf-8"?>
<!-- Generator: Adobe Illustrator 16.0.4, SVG Export Plug-In . SVG Version: 6.00 Build 0)  -->
<!DOCTYPE svg PUBLIC "-//W3C//DTD SVG 1.1//EN" "http://www.w3.org/Graphics/SVG/1.1/DTD/svg11.dtd">
<svg version="1.1" id="レイヤー_1" xmlns="http://www.w3.org/2000/svg" xmlns:xlink="http://www.w3.org/1999/xlink" x="0px"
	 y="0px" width="52px" height="52px" viewBox="0 0 52 52" enable-background="new 0 0 52 52" xml:space="preserve">
<g>
	<circle fill="none" stroke="#969B99" stroke-width="3" cx="26" cy="26" r="24"/>
	<path fill="none" stroke="#969B99" stroke-width="3" d="M41.399,44.404c-1.574-4.439-3.338-7.908-7.755-9.481
		c-1.77-0.631-3.354-1.434-3.354-4.128c0-3.981,3.5-4.288,3.5-9.972c0-4.303-3.488-7.791-7.791-7.791s-7.791,3.488-7.791,7.791
		c0,5.684,3.5,5.99,3.5,9.972c0,2.694-1.583,3.497-3.353,4.128c-4.417,1.573-6.181,5.042-7.755,9.481C14.769,47.896,20.137,50,26,50
		C31.862,50,37.231,47.896,41.399,44.404"/>
</g>
</svg>
