<?xml version="1.0" encoding="utf-8"?>
<!-- Generator: Adobe Illustrator 16.0.4, SVG Export Plug-In . SVG Version: 6.00 Build 0)  -->
<!DOCTYPE svg PUBLIC "-//W3C//DTD SVG 1.1//EN" "http://www.w3.org/Graphics/SVG/1.1/DTD/svg11.dtd">
<svg version="1.1" id="レイヤー_1" xmlns="http://www.w3.org/2000/svg" xmlns:xlink="http://www.w3.org/1999/xlink" x="0px"
	 y="0px" width="318px" height="52px" viewBox="0 0 318 52" enable-background="new 0 0 318 52" xml:space="preserve">
<g>
	<g>
		<g>
			<g>
				<path fill="#969B99" d="M10.63,0.97c1.166-0.923,2.916-0.758,3.89,0.366l6.643,7.673c0.974,1.125,0.554,2.003-0.933,1.953
					L1.621,10.334c-1.486-0.05-1.745-0.847-0.582-1.77L10.63,0.97z"/>
			</g>
			<g>
				<path fill="#969B99" d="M20.068,30.799c-1.399-0.499-1.855-1.908-1.01-3.133l6.246-9.046c0.845-1.224,2.133-1.165,2.864,0.132
					l9.175,16.321c0.729,1.296,0.179,1.948-1.222,1.448L20.068,30.799z"/>
			</g>
			<g>
				<path fill="#969B99" d="M10.897,29.771c1.099,1.002,1.99,3.038,1.98,4.525l-0.066,10.671c-0.01,1.487-0.535,1.604-1.169,0.258
					L0.604,21.784c-0.634-1.346-0.253-1.626,0.846-0.625L10.897,29.771z"/>
			</g>
			<g>
				<path fill="#969B99" d="M33.79,13.769c-1.381-0.552-1.436-1.573-0.121-2.27l6.909-3.662c1.314-0.697,2.891-0.158,3.507,1.197
					l3.767,8.337c0.612,1.355-0.016,2.012-1.397,1.46L33.79,13.769z"/>
			</g>
		</g>
		<g>
			<g>
				<path fill="#231815" d="M15.929,25.852c-0.843,1.224-2.436,1.406-3.534,0.403L0.781,15.668c-1.1-1.002-0.781-1.781,0.704-1.73
					l19.451,0.657c1.486,0.05,2.011,1.092,1.166,2.316L15.929,25.852z"/>
			</g>
			<g>
				<path fill="#231815" d="M16.473,36.055c0.01-1.487,1.163-2.295,2.564-1.796l16.559,5.901c1.4,0.5,1.472,1.479,0.158,2.175
					l-16.996,9.016c-1.313,0.696-2.38,0.05-2.372-1.437L16.473,36.055z"/>
			</g>
			<g>
				<path fill="#231815" d="M29.811,9.464c-1.314,0.697-3.183,0.347-4.159-0.778l-5.888-6.801c-0.974-1.124-0.586-1.765,0.864-1.423
					l15.478,3.65c1.447,0.341,1.557,1.19,0.242,1.887L29.811,9.464z"/>
			</g>
			<g>
				<path fill="#231815" d="M43.921,34.703c-0.728,1.297-1.918,1.298-2.647,0.001l-8.803-15.653
					c-0.729-1.296-0.194-1.911,1.189-1.365l13.699,5.403c1.383,0.546,1.92,2.054,1.193,3.351L43.921,34.703z"/>
			</g>
		</g>
	</g>
	<g>
		<path fill="#231815" d="M94.143,11.03c-7.627,0-13.833,6.067-13.833,13.525c0,7.559,6.109,13.708,13.617,13.708
			s13.617-6.108,13.617-13.616C107.544,17.267,101.406,11.03,94.143,11.03z M103.504,24.647c0,5.28-4.294,9.577-9.577,9.577
			c-5.371,0-9.578-4.247-9.578-9.669c0-5.319,4.288-9.485,9.763-9.485C99.203,15.07,103.504,19.456,103.504,24.647z"/>
		<path fill="#231815" d="M213.39,31.133c-0.237,0.481-1,0.48-1.235,0l-9.682-19.856h-3.657v26.74h4.039V24.259
			c0-0.404,0.287-0.612,0.531-0.67c0.247-0.058,0.596,0.006,0.772,0.368l6.789,13.898l0.078,0.161h3.492l6.868-14.06
			c0.177-0.362,0.522-0.425,0.771-0.368c0.245,0.058,0.532,0.266,0.532,0.67v13.758h4.039v-26.74h-3.658L213.39,31.133z"/>
		<path fill="#231815" d="M246.904,11.03c-7.627,0-13.832,6.067-13.832,13.525c0,7.559,6.107,13.708,13.616,13.708
			c7.508,0,13.616-6.108,13.616-13.616C260.305,17.267,254.169,11.03,246.904,11.03z M256.266,24.647
			c0,5.28-4.296,9.577-9.577,9.577c-5.371,0-9.578-4.247-9.578-9.669c0-5.319,4.288-9.485,9.766-9.485
			C251.965,15.07,256.266,19.456,256.266,24.647z"/>
		<path fill="#231815" d="M285.411,28.807c0,0.361-0.239,0.572-0.464,0.649s-0.543,0.058-0.765-0.227l-13.914-17.842l-0.086-0.111
			h-3.52v26.74h4.039V20.462c0-0.361,0.24-0.573,0.467-0.649c0.22-0.078,0.541-0.059,0.763,0.227l13.998,17.977h3.52v-26.74h-4.038
			V28.807z"/>
		<path fill="#231815" d="M314.038,15.419c-2.588-2.632-6.171-4.142-9.828-4.142h-7.269v26.74h7.563
			c7.249,0,13.245-5.895,13.367-13.14C317.932,21.353,316.57,17.994,314.038,15.419z M313.828,25.007
			c-0.187,4.947-4.475,8.971-9.56,8.971h-2.698c-0.325,0-0.59-0.265-0.59-0.59V15.905c0-0.325,0.265-0.589,0.59-0.589h2.935
			c2.555,0,4.941,1.016,6.719,2.863C313,20.023,313.925,22.448,313.828,25.007z"/>
		<path fill="#231815" d="M167.473,26.497h6.015c0.379,0,0.688,0.308,0.688,0.686v3.597c0,0.498-0.213,0.96-0.583,1.268
			c-1.714,1.425-3.821,2.178-6.092,2.178c-2.79,0-5.442-1.219-7.269-3.346c-1.822-2.123-2.622-4.943-2.194-7.737
			c0.723-4.718,4.884-8.167,9.709-8.069c2.636,0.064,4.993,1.133,6.818,3.09l0.202,0.216l2.861-2.859l-0.193-0.202
			c-2.984-3.157-7.188-4.682-11.522-4.199c-6.261,0.706-11.284,5.774-11.95,12.052c-0.414,3.91,0.8,7.666,3.416,10.574
			c2.583,2.871,6.272,4.518,10.122,4.518c4.078,0,7.898-1.79,10.479-4.909l0.233-0.281V22.457h-10.74V26.497z"/>
		<rect x="142.758" y="11.277" fill="#231815" width="4.038" height="26.74"/>
		<rect x="186.26" y="11.277" fill="#231815" width="4.038" height="26.74"/>
		<path fill="#231815" d="M127.712,26.498h0.649c4.196,0,7.609-3.414,7.609-7.611c0-4.196-3.413-7.61-7.609-7.61h-14.459v26.74
			h4.038V27.183c0-0.378,0.31-0.686,0.688-0.686h1.782c0.517,0,0.993,0.233,1.31,0.64l8.473,10.88h5.097l-8.118-10.41
			c-0.165-0.212-0.194-0.483-0.076-0.724C127.213,26.641,127.443,26.498,127.712,26.498z M131.933,18.887
			c0,1.969-1.602,3.57-3.571,3.57h-9.733c-0.378,0-0.688-0.308-0.688-0.686v-5.769c0-0.378,0.31-0.686,0.688-0.686h9.733
			C130.331,15.316,131.933,16.918,131.933,18.887z"/>
	</g>
</g>
</svg>
