<?xml version="1.0" encoding="utf-8"?>
<!-- Generator: Adobe Illustrator 16.0.4, SVG Export Plug-In . SVG Version: 6.00 Build 0)  -->
<!DOCTYPE svg PUBLIC "-//W3C//DTD SVG 1.1//EN" "http://www.w3.org/Graphics/SVG/1.1/DTD/svg11.dtd">
<svg version="1.1" id="レイヤー_1" xmlns="http://www.w3.org/2000/svg" xmlns:xlink="http://www.w3.org/1999/xlink" x="0px"
	 y="0px" width="50px" height="58px" viewBox="0 0 50 58" enable-background="new 0 0 50 58" xml:space="preserve">
<g>
	<path fill="#969B99" d="M42.745,19.842c0,2.519-0.382,4.587-1.145,6.204L28.985,52.871c-0.37,0.762-0.918,1.363-1.646,1.803
		c-0.728,0.438-1.507,0.658-2.339,0.658s-1.612-0.221-2.339-0.658c-0.728-0.439-1.265-1.041-1.612-1.803L8.399,26.046
		c-0.763-1.617-1.144-3.686-1.144-6.204c0-4.898,1.733-9.08,5.199-12.546C15.919,3.83,20.101,2.097,25,2.097
		c4.898,0,9.08,1.733,12.546,5.199S42.745,14.943,42.745,19.842z M31.273,26.115c1.732-1.733,2.599-3.824,2.599-6.273
		c0-2.449-0.866-4.54-2.599-6.273c-1.733-1.732-3.824-2.599-6.273-2.599c-2.45,0-4.54,0.867-6.273,2.599
		c-1.732,1.733-2.599,3.825-2.599,6.273c0,2.449,0.867,4.54,2.599,6.273c1.733,1.732,3.824,2.599,6.273,2.599
		C27.449,28.714,29.54,27.848,31.273,26.115z"/>
</g>
</svg>
