<?xml version="1.0" encoding="utf-8"?>
<!-- Generator: Adobe Illustrator 16.0.4, SVG Export Plug-In . SVG Version: 6.00 Build 0)  -->
<!DOCTYPE svg PUBLIC "-//W3C//DTD SVG 1.1//EN" "http://www.w3.org/Graphics/SVG/1.1/DTD/svg11.dtd">
<svg version="1.1" id="レイヤー_1" xmlns="http://www.w3.org/2000/svg" xmlns:xlink="http://www.w3.org/1999/xlink" x="0px"
	 y="0px" width="47.998px" height="48px" viewBox="0 0 47.998 48" enable-background="new 0 0 47.998 48" xml:space="preserve">
<path fill="#333333" d="M43.998,20H13.655L26.826,6.828c1.562-1.562,1.562-4.095,0-5.657c-1.562-1.562-4.094-1.562-5.657,0l-20,20
	c-0.016,0.016-0.027,0.036-0.042,0.052C0.96,21.396,0.806,21.58,0.672,21.78c-0.069,0.104-0.118,0.216-0.176,0.325
	c-0.065,0.121-0.138,0.236-0.191,0.364c-0.056,0.136-0.089,0.279-0.13,0.419c-0.032,0.11-0.074,0.214-0.097,0.327
	c-0.103,0.518-0.103,1.051,0,1.568c0.022,0.114,0.065,0.219,0.098,0.331c0.041,0.14,0.073,0.28,0.129,0.416
	c0.054,0.129,0.127,0.246,0.193,0.367c0.058,0.107,0.106,0.219,0.174,0.321c0.133,0.198,0.286,0.381,0.451,0.553
	c0.017,0.018,0.029,0.039,0.046,0.057l20,20C21.951,47.609,22.974,48,23.998,48c1.023,0,2.048-0.391,2.828-1.172
	c1.562-1.562,1.562-4.095,0-5.656L13.654,27.999h30.344c2.209,0,4-1.79,4-4C47.998,21.791,46.207,20,43.998,20z"/>
</svg>
