<?xml version="1.0" encoding="utf-8"?>
<!-- Generator: Adobe Illustrator 16.0.4, SVG Export Plug-In . SVG Version: 6.00 Build 0)  -->
<!DOCTYPE svg PUBLIC "-//W3C//DTD SVG 1.1//EN" "http://www.w3.org/Graphics/SVG/1.1/DTD/svg11.dtd">
<svg version="1.1" id="レイヤー_1" xmlns="http://www.w3.org/2000/svg" xmlns:xlink="http://www.w3.org/1999/xlink" x="0px"
	 y="0px" width="80px" height="80px" viewBox="0 0 80 80" enable-background="new 0 0 80 80" xml:space="preserve">
<g>
	<circle fill="#969B99" cx="39.846" cy="40.06" r="40"/>
	<path fill="#FFFFFF" d="M57.099,48.302c-0.164-0.489-0.596-0.959-2.199-1.76c-0.302-0.173-0.729-0.411-1.282-0.711
		c-0.541-0.293-1.029-0.563-1.47-0.811c-0.433-0.244-0.841-0.479-1.146-0.658c-0.066-0.049-0.268-0.189-0.61-0.428
		c-0.373-0.257-0.687-0.444-0.956-0.574c-0.922-0.444-1.814-0.357-2.896,0.669c-0.502,0.477-0.971,1.005-1.39,1.566
		c-0.359,0.481-0.746,0.935-1.152,1.349c-0.232,0.236-0.376,0.334-0.439,0.371c-0.032-0.009-0.082-0.022-0.15-0.048
		c-0.166-0.062-0.295-0.112-0.388-0.159c-0.094-0.047-0.253-0.143-0.482-0.283c-0.301-0.187-0.472-0.286-0.48-0.291
		c-2.042-1.131-3.814-2.443-5.271-3.899c-1.455-1.454-2.767-3.227-3.882-5.234c-0.018-0.037-0.118-0.209-0.31-0.518
		c-0.142-0.23-0.237-0.391-0.283-0.485c-0.044-0.086-0.097-0.215-0.159-0.385c-0.024-0.067-0.038-0.115-0.046-0.148
		c0.038-0.066,0.135-0.21,0.369-0.44c0.414-0.406,0.867-0.794,1.349-1.153c0.559-0.417,1.088-0.884,1.567-1.39
		c0.632-0.664,0.926-1.242,0.926-1.821c0-0.36-0.086-0.722-0.258-1.078c-0.133-0.274-0.32-0.585-0.575-0.955
		c-0.197-0.286-0.329-0.475-0.398-0.569c-0.22-0.37-0.45-0.766-0.686-1.188c-0.246-0.439-0.517-0.928-0.81-1.468
		c-0.301-0.554-0.539-0.98-0.687-1.232c-0.825-1.652-1.296-2.085-1.712-2.222c-0.56-0.237-1.422-0.185-2.722,0.111
		c-0.741,0.172-1.319,0.35-1.752,0.54c-0.987,0.415-1.948,1.482-2.938,3.269c-0.867,1.596-1.305,3.207-1.305,4.792
		c0,0.464,0.03,0.919,0.09,1.354c0.061,0.437,0.167,0.932,0.318,1.468c0.147,0.527,0.269,0.917,0.357,1.169
		c0.087,0.244,0.247,0.682,0.482,1.311c0.228,0.605,0.365,0.975,0.415,1.129c0.565,1.58,1.246,3.015,2.022,4.262
		c1.261,2.042,2.998,4.176,5.164,6.343c2.166,2.165,4.3,3.902,6.34,5.161c1.25,0.779,2.686,1.461,4.284,2.031
		c0.136,0.045,0.504,0.181,1.11,0.408c0.628,0.235,1.065,0.397,1.31,0.483c0.255,0.09,0.644,0.211,1.168,0.358
		c0.532,0.149,1.025,0.256,1.469,0.317c0.435,0.06,0.89,0.091,1.354,0.091c1.584,0,3.196-0.439,4.8-1.31
		c1.779-0.986,2.845-1.946,3.253-2.919c0.198-0.447,0.377-1.026,0.547-1.77c0.174-0.753,0.258-1.361,0.258-1.856
		C57.217,48.734,57.169,48.459,57.099,48.302z"/>
</g>
</svg>
