<?xml version="1.0" encoding="utf-8"?>
<!-- Generator: Adobe Illustrator 16.0.4, SVG Export Plug-In . SVG Version: 6.00 Build 0)  -->
<!DOCTYPE svg PUBLIC "-//W3C//DTD SVG 1.1//EN" "http://www.w3.org/Graphics/SVG/1.1/DTD/svg11.dtd">
<svg version="1.1" id="レイヤー_1" xmlns="http://www.w3.org/2000/svg" xmlns:xlink="http://www.w3.org/1999/xlink" x="0px"
	 y="0px" width="24px" height="24px" viewBox="0 0 24 24" enable-background="new 0 0 24 24" xml:space="preserve">
<g>
	<g>
		<path fill="#FFFFFF" d="M24,4.5v15c0,2.484-2.016,4.5-4.5,4.5h-2.938v-9.297h3.109l0.469-3.625h-3.578V8.766
			c0-1.047,0.281-1.75,1.797-1.75L20.266,7V3.766c-0.328-0.047-1.469-0.141-2.781-0.141c-2.766,0-4.672,1.688-4.672,4.781v2.672
			H9.688v3.625h3.125V24H4.5C2.016,24,0,21.984,0,19.5v-15C0,2.016,2.016,0,4.5,0h15C21.984,0,24,2.016,24,4.5z"/>
	</g>
</g>
</svg>
