<?xml version="1.0" encoding="utf-8"?>
<!-- Generator: Adobe Illustrator 16.0.4, SVG Export Plug-In . SVG Version: 6.00 Build 0)  -->
<!DOCTYPE svg PUBLIC "-//W3C//DTD SVG 1.1//EN" "http://www.w3.org/Graphics/SVG/1.1/DTD/svg11.dtd">
<svg version="1.1" id="レイヤー_1" xmlns="http://www.w3.org/2000/svg" xmlns:xlink="http://www.w3.org/1999/xlink" x="0px"
	 y="0px" width="60px" height="30px" viewBox="0 0 60 30" enable-background="new 0 0 60 30" xml:space="preserve">
<g>
	<g>
		<path fill="#FFFFFF" d="M50,2c4.411,0,8,3.589,8,8v10c0,4.411-3.589,8-8,8H10c-4.411,0-8-3.589-8-8V10c0-4.411,3.589-8,8-8H50
			 M50,0H10C4.5,0,0,4.5,0,10v10c0,5.5,4.5,10,10,10h40c5.5,0,10-4.5,10-10V10C60,4.5,55.5,0,50,0L50,0z"/>
	</g>
	<g>
		<g>
			<path fill="#FFFFFF" d="M16.763,20.508v-4.659H12.53v4.659h-1.619V9.836h1.619v4.57h4.233v-4.57h1.619v10.672H16.763z"/>
			<path fill="#FFFFFF" d="M22.13,20.508V9.836h6.826v1.531h-5.208v3.04h4.438v1.443h-4.438v3.135h5.208v1.523H22.13z"/>
			<path fill="#FFFFFF" d="M31.965,20.508V9.836h1.619v9.148h5.207v1.523H31.965z"/>
			<path fill="#FFFFFF" d="M41.801,20.508V9.836h3.874c0.415,0,0.813,0.044,1.197,0.132s0.782,0.293,1.198,0.615
				c0.322,0.249,0.596,0.592,0.82,1.029c0.225,0.437,0.336,0.943,0.336,1.52c0,0.762-0.284,1.487-0.853,2.175
				c-0.569,0.688-1.4,1.033-2.494,1.033h-2.461v4.168H41.801z M43.419,11.367v3.442h2.402c0.601,0,1.048-0.181,1.344-0.542
				s0.443-0.754,0.443-1.179c0-0.645-0.231-1.118-0.696-1.421c-0.297-0.2-0.681-0.3-1.149-0.3H43.419z"/>
		</g>
	</g>
</g>
</svg>
