<?xml version="1.0" encoding="utf-8"?>
<!-- Generator: Adobe Illustrator 16.0.4, SVG Export Plug-In . SVG Version: 6.00 Build 0)  -->
<!DOCTYPE svg PUBLIC "-//W3C//DTD SVG 1.1//EN" "http://www.w3.org/Graphics/SVG/1.1/DTD/svg11.dtd">
<svg version="1.1" id="レイヤー_1" xmlns="http://www.w3.org/2000/svg" xmlns:xlink="http://www.w3.org/1999/xlink" x="0px"
	 y="0px" width="80px" height="80px" viewBox="0 0 80 80" enable-background="new 0 0 80 80" xml:space="preserve">
<g>
	<g>
		<g>
			<circle fill="#333333" cx="40" cy="40" r="35.294"/>
			<path fill="#333333" d="M40,80C17.943,80,0,62.057,0,40C0,17.944,17.943,0,40,0c22.057,0,40,17.944,40,40
				C80,62.057,62.057,80,40,80L40,80z M40,9.412C23.135,9.412,9.412,23.134,9.412,40S23.135,70.589,40,70.589
				c16.866,0,30.589-13.723,30.589-30.589S56.866,9.412,40,9.412L40,9.412z"/>
		</g>
	</g>
	<g>
		<g>
			<path fill="#FFFFFF" d="M38.952,60.687L24.21,46.465c-0.188-0.165-5.387-4.913-5.387-10.583c0-6.922,4.229-11.057,11.292-11.057
				c4.136,0,8.01,3.26,9.876,5.103c1.865-1.843,5.74-5.103,9.876-5.103c7.063,0,11.291,4.134,11.291,11.057
				c0,5.67-5.197,10.418-5.409,10.631l-14.72,14.174c-0.282,0.283-0.662,0.426-1.038,0.426
				C39.614,61.112,39.235,60.97,38.952,60.687z"/>
		</g>
	</g>
</g>
</svg>
