<?xml version="1.0" encoding="utf-8"?>
<!-- Generator: Adobe Illustrator 16.0.4, SVG Export Plug-In . SVG Version: 6.00 Build 0)  -->
<!DOCTYPE svg PUBLIC "-//W3C//DTD SVG 1.1//EN" "http://www.w3.org/Graphics/SVG/1.1/DTD/svg11.dtd">
<svg version="1.1" id="レイヤー_1" xmlns="http://www.w3.org/2000/svg" xmlns:xlink="http://www.w3.org/1999/xlink" x="0px"
	 y="0px" width="80px" height="80px" viewBox="0 0 80 80" enable-background="new 0 0 80 80" xml:space="preserve">
<g>
	<g>
		<path fill="#333333" d="M35.362,53.354H3.75c-1.723,0-3.125-1.402-3.125-3.125v-27.5c0-1.723,1.402-3.125,3.125-3.125h72.5
			c1.723,0,3.125,1.402,3.125,3.125v27.5c0,1.723-1.402,3.125-3.125,3.125H44.637L40,59.587L35.362,53.354z"/>
		<path fill="#808080" d="M76.25,20.228c1.379,0,2.5,1.122,2.5,2.5v27.5c0,1.379-1.121,2.5-2.5,2.5H44.951h-0.628l-0.375,0.504
			L40,58.54l-3.949-5.308l-0.375-0.504h-0.628H3.75c-1.378,0-2.5-1.121-2.5-2.5v-27.5c0-1.378,1.122-2.5,2.5-2.5H76.25
			 M76.25,18.978H3.75c-2.068,0-3.75,1.682-3.75,3.75v27.5c0,2.067,1.682,3.75,3.75,3.75h31.298L40,60.634l4.951-6.655H76.25
			c2.068,0,3.75-1.683,3.75-3.75v-27.5C80,20.66,78.318,18.978,76.25,18.978L76.25,18.978z"/>
	</g>
	<g>
		
			<text transform="matrix(1 0 0 1 13.751 44.9551)" fill="#FFFFFF" font-family="'AlteDIN1451Mittelschrift'" font-size="25" letter-spacing="1">2345</text>
	</g>
</g>
</svg>
