<?xml version="1.0" encoding="utf-8"?>
<!-- Generator: Adobe Illustrator 16.0.4, SVG Export Plug-In . SVG Version: 6.00 Build 0)  -->
<!DOCTYPE svg PUBLIC "-//W3C//DTD SVG 1.1//EN" "http://www.w3.org/Graphics/SVG/1.1/DTD/svg11.dtd">
<svg version="1.1" id="レイヤー_1" xmlns="http://www.w3.org/2000/svg" xmlns:xlink="http://www.w3.org/1999/xlink" x="0px"
	 y="0px" width="80px" height="80px" viewBox="0 0 80 80" enable-background="new 0 0 80 80" xml:space="preserve">
<g>
	<circle fill="#969B99" cx="40" cy="40" r="40"/>
	<g>
		<path fill="#FFFFFF" d="M53.6,33.936c-2.926,2.025-5.871,4.051-8.777,6.095c-1.219,0.844-3.281,2.569-4.801,2.569h-0.019h-0.019
			c-1.519,0-3.582-1.726-4.801-2.569c-2.907-2.044-5.851-4.069-8.758-6.095c-1.332-0.9-3.226-3.02-3.226-4.726
			c0-1.838,0.994-3.413,3-3.413h27.604c1.632,0,3.001,1.351,3.001,3C56.806,30.897,55.249,32.792,53.6,33.936z M56.806,49.201
			c0,1.649-1.351,3-3.001,3H26.201c-1.65,0-3-1.351-3-3V34.311c0.562,0.619,1.2,1.163,1.894,1.632
			c3.113,2.119,6.264,4.238,9.32,6.47C35.99,43.575,37.94,45,39.984,45h0.019h0.019c2.045,0,3.994-1.425,5.57-2.588
			c3.057-2.213,6.207-4.351,9.338-6.47c0.676-0.469,1.313-1.013,1.876-1.632V49.201z"/>
	</g>
</g>
</svg>
