<?xml version="1.0" encoding="utf-8"?>
<!-- Generator: Adobe Illustrator 16.0.4, SVG Export Plug-In . SVG Version: 6.00 Build 0)  -->
<!DOCTYPE svg PUBLIC "-//W3C//DTD SVG 1.1//EN" "http://www.w3.org/Graphics/SVG/1.1/DTD/svg11.dtd">
<svg version="1.1" id="レイヤー_1" xmlns="http://www.w3.org/2000/svg" xmlns:xlink="http://www.w3.org/1999/xlink" x="0px"
	 y="0px" width="80px" height="80px" viewBox="0 0 80 80" enable-background="new 0 0 80 80" xml:space="preserve">
<g>
	<g>
		<circle fill="#FFFFFF" cx="40" cy="40" r="40"/>
	</g>
</g>
<g>
	<path fill="#333333" d="M21.231,46.338c-0.07,0-0.105-0.035-0.105-0.105V33.638c0-0.07,0.035-0.105,0.105-0.105h1.907
		c0.07,0,0.105,0.035,0.105,0.105v10.696h6.038c0.07,0,0.105,0.035,0.105,0.105v1.793c0,0.07-0.035,0.105-0.105,0.105H21.231z"/>
	<path fill="#333333" d="M33.007,46.338c-0.07,0-0.105-0.035-0.105-0.105V33.638c0-0.07,0.035-0.105,0.105-0.105h1.907
		c0.07,0,0.105,0.035,0.105,0.105v12.594c0,0.07-0.035,0.105-0.105,0.105H33.007z"/>
	<path fill="#333333" d="M39.688,43.104c0.018-0.022,0.041-0.035,0.07-0.035s0.056,0.01,0.079,0.027
		c0.463,0.375,0.994,0.675,1.596,0.9c0.6,0.226,1.234,0.338,1.902,0.338c0.75,0,1.342-0.154,1.775-0.465
		c0.41-0.299,0.615-0.695,0.615-1.188c0-0.926-0.519-1.459-1.556-1.6h0.009c-0.146-0.018-0.285-0.035-0.418-0.053
		c-0.131-0.018-0.264-0.035-0.395-0.052c-0.133-0.018-0.268-0.037-0.404-0.057c-0.139-0.021-0.289-0.042-0.453-0.066
		c-0.551-0.076-1.041-0.215-1.473-0.417c-0.43-0.202-0.792-0.47-1.085-0.804c-0.293-0.34-0.513-0.71-0.659-1.112
		s-0.22-0.839-0.22-1.314c0-1.113,0.369-2.019,1.107-2.716c0.744-0.709,1.778-1.063,3.103-1.063c0.393,0,0.774,0.034,1.146,0.101
		s0.732,0.16,1.082,0.277c0.348,0.117,0.682,0.256,1.002,0.417c0.318,0.161,0.625,0.338,0.918,0.532
		c0.059,0.041,0.067,0.091,0.026,0.149l-1.063,1.573c-0.041,0.053-0.088,0.062-0.141,0.026c-0.457-0.287-0.943-0.517-1.459-0.69
		s-1.049-0.259-1.6-0.259c-0.281,0-0.542,0.034-0.782,0.101s-0.457,0.177-0.65,0.33c-0.381,0.275-0.571,0.694-0.571,1.257
		c0,0.322,0.129,0.636,0.387,0.94c0.129,0.141,0.302,0.259,0.519,0.356s0.483,0.168,0.8,0.215c0.17,0.029,0.369,0.06,0.598,0.092
		s0.498,0.066,0.809,0.101c1.201,0.146,2.092,0.589,2.672,1.327c0.58,0.721,0.87,1.524,0.87,2.408c0,1.184-0.413,2.109-1.239,2.777
		c-0.832,0.656-1.928,0.984-3.287,0.984c-1.916,0-3.545-0.585-4.887-1.758c-0.023-0.018-0.035-0.04-0.035-0.07
		c0-0.029,0.009-0.055,0.026-0.078L39.688,43.104z"/>
	<path fill="#333333" d="M54.209,46.338c-0.07,0-0.105-0.035-0.105-0.105V35.44h-3.349c-0.07,0-0.105-0.035-0.105-0.105v-1.696
		c0-0.07,0.035-0.105,0.105-0.105h8.807c0.07,0,0.105,0.035,0.105,0.105v1.696c0,0.07-0.035,0.105-0.105,0.105h-3.34v10.792
		c0,0.07-0.035,0.105-0.105,0.105H54.209z"/>
</g>
</svg>
