<?xml version="1.0" encoding="utf-8"?>
<!-- Generator: Adobe Illustrator 16.0.4, SVG Export Plug-In . SVG Version: 6.00 Build 0)  -->
<!DOCTYPE svg PUBLIC "-//W3C//DTD SVG 1.1//EN" "http://www.w3.org/Graphics/SVG/1.1/DTD/svg11.dtd">
<svg version="1.1" id="レイヤー_1" xmlns="http://www.w3.org/2000/svg" xmlns:xlink="http://www.w3.org/1999/xlink" x="0px"
	 y="0px" width="80px" height="80px" viewBox="0 0 80 80" enable-background="new 0 0 80 80" xml:space="preserve">
<g>
	<circle opacity="0.6" fill="#969B99" cx="40" cy="40" r="40"/>
	<circle fill="#969B99" cx="40" cy="40" r="28"/>
	<g>
		<g>
			<path fill="#FFFFFF" d="M27.169,39.417V29.156h10.104v2.722h-7.539v4.284c0.867-0.694,1.879-1.042,3.033-1.042
				c0.721,0,1.378,0.139,1.973,0.417s1.065,0.604,1.413,0.977c0.521,0.564,0.9,1.178,1.14,1.842
				c0.238,0.664,0.357,1.782,0.357,3.354c0,1.275-0.093,2.224-0.279,2.845c-0.188,0.62-0.484,1.191-0.893,1.712
				c-0.391,0.495-0.938,0.955-1.641,1.381c-0.703,0.425-1.527,0.638-2.474,0.638c-1.224,0-2.404-0.378-3.542-1.133
				c-1.137-0.755-1.806-2.019-2.005-3.789h2.722c0.32,1.476,1.228,2.214,2.721,2.214c1.328,0,2.105-0.456,2.331-1.367
				c0.226-0.912,0.339-1.814,0.339-2.709c0-1.05-0.179-1.922-0.534-2.617c-0.356-0.694-1.094-1.042-2.214-1.042
				c-1.05,0-1.866,0.525-2.447,1.576H27.169z"/>
			<path fill="#FFFFFF" d="M42.596,42.867v-8.398c0.009-1.753,0.556-3.107,1.641-4.062C45.234,29.469,46.433,29,47.83,29
				c1.241,0,2.353,0.365,3.333,1.094c0.929,0.738,1.532,1.81,1.811,3.216h-2.734c-0.426-1.042-1.233-1.576-2.422-1.602
				c-1.702,0.043-2.562,1.02-2.578,2.93v1.784c1.25-0.399,2.422-0.594,3.516-0.586c1.215,0,2.248,0.417,3.099,1.25
				c0.824,0.859,1.229,2.205,1.211,4.037v1.731c-0.026,1.762-0.552,3.112-1.575,4.05c-0.981,0.92-2.201,1.396-3.659,1.432
				c-1.415-0.035-2.613-0.508-3.594-1.419C43.151,45.971,42.604,44.621,42.596,42.867z M45.239,41.148v1.562
				c0.025,1.936,0.89,2.908,2.591,2.917c1.675-0.009,2.543-0.981,2.604-2.917v-1.562c-0.062-1.901-0.93-2.869-2.604-2.903
				C46.129,38.28,45.265,39.248,45.239,41.148z"/>
		</g>
	</g>
</g>
</svg>
