<?xml version="1.0" encoding="utf-8"?>
<!-- Generator: Adobe Illustrator 16.0.4, SVG Export Plug-In . SVG Version: 6.00 Build 0)  -->
<!DOCTYPE svg PUBLIC "-//W3C//DTD SVG 1.1//EN" "http://www.w3.org/Graphics/SVG/1.1/DTD/svg11.dtd">
<svg version="1.1" id="レイヤー_1" xmlns="http://www.w3.org/2000/svg" xmlns:xlink="http://www.w3.org/1999/xlink" x="0px"
	 y="0px" width="80px" height="80px" viewBox="0 0 80 80" enable-background="new 0 0 80 80" xml:space="preserve">
<g>
	<circle fill="#969B99" cx="40" cy="40" r="40"/>
	<g>
		<path fill="#FFFFFF" d="M55.604,49.801c0,1.65-1.351,3-3.001,3H27.399c-1.65,0-3-1.35-3-3V29.397c0-1.65,1.35-3,3-3h25.204
			c1.65,0,3.001,1.35,3.001,3V49.801z M34.001,31.797c0-0.337-0.263-0.6-0.601-0.6h-6.001c-0.337,0-0.6,0.263-0.6,0.6v3.601
			c0,0.337,0.262,0.6,0.6,0.6H33.4c0.338,0,0.601-0.263,0.601-0.6V31.797z M34.001,38.999c0-0.337-0.263-0.6-0.601-0.6h-6.001
			c-0.337,0-0.6,0.263-0.6,0.6V42.6c0,0.337,0.262,0.6,0.6,0.6H33.4c0.338,0,0.601-0.263,0.601-0.6V38.999z M34.001,46.199
			c0-0.337-0.263-0.6-0.601-0.6h-6.001c-0.337,0-0.6,0.263-0.6,0.6v3.602c0,0.337,0.262,0.6,0.6,0.6H33.4
			c0.338,0,0.601-0.263,0.601-0.6V46.199z M43.603,31.797c0-0.337-0.263-0.6-0.601-0.6h-6.001c-0.337,0-0.6,0.263-0.6,0.6v3.601
			c0,0.337,0.262,0.6,0.6,0.6h6.001c0.338,0,0.601-0.263,0.601-0.6V31.797z M43.603,38.999c0-0.337-0.263-0.6-0.601-0.6h-6.001
			c-0.337,0-0.6,0.263-0.6,0.6V42.6c0,0.337,0.262,0.6,0.6,0.6h6.001c0.338,0,0.601-0.263,0.601-0.6V38.999z M43.603,46.199
			c0-0.337-0.263-0.6-0.601-0.6h-6.001c-0.337,0-0.6,0.263-0.6,0.6v3.602c0,0.337,0.262,0.6,0.6,0.6h6.001
			c0.338,0,0.601-0.263,0.601-0.6V46.199z M53.204,31.797c0-0.337-0.263-0.6-0.601-0.6h-6.001c-0.337,0-0.6,0.263-0.6,0.6v3.601
			c0,0.337,0.263,0.6,0.6,0.6h6.001c0.338,0,0.601-0.263,0.601-0.6V31.797z M53.204,38.999c0-0.337-0.263-0.6-0.601-0.6h-6.001
			c-0.337,0-0.6,0.263-0.6,0.6V42.6c0,0.337,0.263,0.6,0.6,0.6h6.001c0.338,0,0.601-0.263,0.601-0.6V38.999z M53.204,46.199
			c0-0.337-0.263-0.6-0.601-0.6h-6.001c-0.337,0-0.6,0.263-0.6,0.6v3.602c0,0.337,0.263,0.6,0.6,0.6h6.001
			c0.338,0,0.601-0.263,0.601-0.6V46.199z"/>
	</g>
</g>
</svg>
