<?xml version="1.0" encoding="utf-8"?>
<!-- Generator: Adobe Illustrator 16.0.4, SVG Export Plug-In . SVG Version: 6.00 Build 0)  -->
<!DOCTYPE svg PUBLIC "-//W3C//DTD SVG 1.1//EN" "http://www.w3.org/Graphics/SVG/1.1/DTD/svg11.dtd">
<svg version="1.1" id="レイヤー_1" xmlns="http://www.w3.org/2000/svg" xmlns:xlink="http://www.w3.org/1999/xlink" x="0px"
	 y="0px" width="80px" height="80px" viewBox="0 0 80 80" enable-background="new 0 0 80 80" xml:space="preserve">
<g>
	<circle fill="#333333" cx="40" cy="40" r="40"/>
	<g>
		<path fill="#FFFFFF" d="M55.999,53.537c0,0.668-0.243,1.246-0.729,1.732C54.784,55.758,54.204,56,53.541,56
			c-0.691,0-1.271-0.242-1.733-0.73l-6.594-6.578c-2.295,1.592-4.856,2.385-7.674,2.385c-1.832,0-3.585-0.355-5.258-1.066
			s-3.117-1.674-4.327-2.885c-1.215-1.213-2.173-2.654-2.888-4.326c-0.711-1.674-1.066-3.426-1.066-5.26
			c0-1.832,0.355-3.587,1.066-5.26c0.715-1.673,1.673-3.115,2.888-4.328c1.21-1.21,2.654-2.173,4.327-2.883
			C33.955,24.355,35.708,24,37.54,24c1.832,0,3.584,0.355,5.257,1.068c1.674,0.71,3.117,1.673,4.328,2.883
			c1.215,1.212,2.173,2.655,2.888,4.328c0.71,1.673,1.065,3.428,1.065,5.26c0,2.82-0.794,5.379-2.384,7.672l6.595,6.598
			C55.766,52.283,55.999,52.859,55.999,53.537z M43.624,43.625c1.688-1.688,2.528-3.715,2.528-6.086c0-2.372-0.841-4.4-2.528-6.087
			c-1.682-1.685-3.715-2.528-6.084-2.528c-2.374,0-4.402,0.844-6.085,2.528c-1.687,1.687-2.532,3.715-2.532,6.087
			c0,2.371,0.845,4.399,2.532,6.086c1.683,1.686,3.711,2.529,6.085,2.529C39.909,46.154,41.942,45.311,43.624,43.625z"/>
	</g>
</g>
</svg>
