<?xml version="1.0" encoding="utf-8"?>
<!-- Generator: Adobe Illustrator 16.0.4, SVG Export Plug-In . SVG Version: 6.00 Build 0)  -->
<!DOCTYPE svg PUBLIC "-//W3C//DTD SVG 1.1//EN" "http://www.w3.org/Graphics/SVG/1.1/DTD/svg11.dtd">
<svg version="1.1" id="レイヤー_1" xmlns="http://www.w3.org/2000/svg" xmlns:xlink="http://www.w3.org/1999/xlink" x="0px"
	 y="0px" width="80px" height="80px" viewBox="0 0 80 80" enable-background="new 0 0 80 80" xml:space="preserve">
<g>
	<path fill="#333333" d="M40,80C17.943,80,0,62.057,0,40C0,17.944,17.943,0,40,0c22.057,0,40,17.944,40,40
		C80,62.057,62.057,80,40,80L40,80z"/>
	<path fill="#FFFFFF" d="M40,9.412C23.133,9.412,9.412,23.134,9.412,40S23.133,70.588,40,70.588
		c16.867,0,30.589-13.722,30.589-30.588S56.867,9.412,40,9.412L40,9.412z"/>
	<polygon fill="#333333" points="35.294,56.066 20.202,40.975 26.856,34.319 35.294,42.757 54.32,23.731 60.974,30.387 
		35.294,56.066 	"/>
</g>
</svg>
