<?xml version="1.0" encoding="utf-8"?>
<!-- Generator: Adobe Illustrator 16.0.4, SVG Export Plug-In . SVG Version: 6.00 Build 0)  -->
<!DOCTYPE svg PUBLIC "-//W3C//DTD SVG 1.1//EN" "http://www.w3.org/Graphics/SVG/1.1/DTD/svg11.dtd">
<svg version="1.1" id="レイヤー_1" xmlns="http://www.w3.org/2000/svg" xmlns:xlink="http://www.w3.org/1999/xlink" x="0px"
	 y="0px" width="80px" height="80px" viewBox="0 0 80 80" enable-background="new 0 0 80 80" xml:space="preserve">
<g>
	<circle fill="#333333" cx="40" cy="40" r="40"/>
	<g>
		<g>
			<path fill="#FFFFFF" d="M52.667,33.667c0,1.798-0.272,3.274-0.816,4.429l-9.004,19.149c-0.266,0.543-0.657,0.973-1.177,1.287
				C41.15,58.844,40.594,59,40,59s-1.15-0.156-1.67-0.469c-0.52-0.314-0.903-0.744-1.15-1.287l-9.031-19.149
				c-0.544-1.154-0.816-2.631-0.816-4.429c0-3.496,1.237-6.481,3.712-8.956C33.519,22.237,36.503,21,40,21s6.481,1.237,8.956,3.711
				S52.667,30.17,52.667,33.667z M44.479,38.145c1.236-1.237,1.855-2.729,1.855-4.478c0-1.748-0.619-3.241-1.855-4.478
				c-1.237-1.237-2.73-1.855-4.479-1.855c-1.749,0-3.241,0.618-4.478,1.855c-1.237,1.237-1.856,2.729-1.856,4.478
				c0,1.749,0.619,3.241,1.856,4.478C36.759,39.381,38.251,40,40,40C41.748,40,43.241,39.381,44.479,38.145z"/>
		</g>
	</g>
</g>
</svg>
