<?xml version="1.0" encoding="utf-8"?>
<!-- Generator: Adobe Illustrator 16.0.4, SVG Export Plug-In . SVG Version: 6.00 Build 0)  -->
<!DOCTYPE svg PUBLIC "-//W3C//DTD SVG 1.1//EN" "http://www.w3.org/Graphics/SVG/1.1/DTD/svg11.dtd">
<svg version="1.1" id="レイヤー_1" xmlns="http://www.w3.org/2000/svg" xmlns:xlink="http://www.w3.org/1999/xlink" x="0px"
	 y="0px" width="80px" height="80px" viewBox="0 0 80 80" enable-background="new 0 0 80 80" xml:space="preserve">
<circle fill="#333333" cx="40" cy="40" r="40"/>
<g>
	<path fill="#FFFFFF" d="M46.821,20.899c2.629,0,4.878,0.664,6.747,1.993c1.868,1.329,2.804,2.938,2.804,4.829v19.101
		c0,1.848-0.893,3.425-2.676,4.732c-1.784,1.308-3.954,1.997-6.513,2.067l4.541,4.307c0.228,0.213,0.283,0.462,0.171,0.746
		c-0.114,0.284-0.327,0.427-0.64,0.427H28.744c-0.313,0-0.526-0.143-0.641-0.427c-0.113-0.284-0.057-0.533,0.171-0.746l4.541-4.307
		c-2.559-0.07-4.729-0.76-6.512-2.067c-1.785-1.308-2.676-2.885-2.676-4.732V27.721c0-1.89,0.935-3.5,2.804-4.829
		s4.118-1.993,6.748-1.993H46.821z M27.358,47.866c0.667,0.669,1.47,1.002,2.409,1.002c0.938,0,1.741-0.333,2.409-1.002
		c0.668-0.667,1.002-1.471,1.002-2.408c0-0.938-0.334-1.741-1.002-2.409c-0.668-0.668-1.471-1.002-2.409-1.002
		c-0.938,0-1.742,0.334-2.409,1.002c-0.668,0.668-1.002,1.471-1.002,2.409C26.356,46.396,26.69,47.199,27.358,47.866z
		 M38.635,37.271V26.356H27.038v10.915H38.635z M53.643,37.271V26.356H41.364v10.915H53.643z M47.823,47.866
		c0.668,0.669,1.471,1.002,2.409,1.002c0.938,0,1.74-0.333,2.409-1.002c0.667-0.667,1.001-1.471,1.001-2.408
		c0-0.938-0.334-1.741-1.001-2.409c-0.669-0.668-1.472-1.002-2.409-1.002c-0.938,0-1.741,0.334-2.409,1.002
		s-1.002,1.471-1.002,2.409C46.821,46.396,47.155,47.199,47.823,47.866z"/>
</g>
</svg>
