<?xml version="1.0" encoding="utf-8"?>
<!-- Generator: Adobe Illustrator 16.0.4, SVG Export Plug-In . SVG Version: 6.00 Build 0)  -->
<!DOCTYPE svg PUBLIC "-//W3C//DTD SVG 1.1//EN" "http://www.w3.org/Graphics/SVG/1.1/DTD/svg11.dtd">
<svg version="1.1" id="レイヤー_1" xmlns="http://www.w3.org/2000/svg" xmlns:xlink="http://www.w3.org/1999/xlink" x="0px"
	 y="0px" width="40px" height="34px" viewBox="0 0 40 34" enable-background="new 0 0 40 34" xml:space="preserve">
<g>
	<g>
		<g>
			<rect fill="#333333" width="20" height="4"/>
			<rect y="10" fill="#333333" width="12" height="4"/>
			<rect y="20" fill="#333333" width="12" height="4"/>
			<rect y="30" fill="#333333" width="20" height="4"/>
			<path fill="#333333" d="M27.202,27.589c-2.828,0-5.487-1.102-7.487-3.102c-4.127-4.129-4.127-10.846,0-14.975
				c2-2,4.66-3.102,7.488-3.102s5.487,1.101,7.488,3.101c4.128,4.129,4.128,10.846,0,14.975
				C32.689,26.487,30.03,27.589,27.202,27.589z M27.202,10.411c-1.76,0-3.414,0.685-4.659,1.93
				c-2.567,2.569-2.567,6.749,0.001,9.318c1.244,1.244,2.898,1.93,4.658,1.93s3.415-0.686,4.66-1.93c2.568-2.569,2.568-6.75,0-9.318
				C30.617,11.096,28.962,10.411,27.202,10.411z"/>
			<path fill="#333333" d="M38,29.797c-0.512,0-1.023-0.195-1.414-0.586l-4.724-4.724c-0.781-0.781-0.781-2.047,0-2.828
				s2.047-0.781,2.828,0l4.724,4.724c0.781,0.781,0.781,2.047,0,2.828C39.023,29.602,38.512,29.797,38,29.797z"/>
		</g>
	</g>
</g>
</svg>
