<?xml version="1.0" encoding="utf-8"?>
<!-- Generator: Adobe Illustrator 16.0.4, SVG Export Plug-In . SVG Version: 6.00 Build 0)  -->
<!DOCTYPE svg PUBLIC "-//W3C//DTD SVG 1.1//EN" "http://www.w3.org/Graphics/SVG/1.1/DTD/svg11.dtd">
<svg version="1.1" id="レイヤー_1" xmlns="http://www.w3.org/2000/svg" xmlns:xlink="http://www.w3.org/1999/xlink" x="0px"
	 y="0px" width="640px" height="50px" viewBox="0 0 640 50" enable-background="new 0 0 640 50" xml:space="preserve">
<path fill="#FFFFFF" d="M640,30v20H0V30h202c4.4,0,10.545-2.546,13.657-5.657l18.687-18.687C237.454,2.546,243.6,0,248,0h144
	c4.4,0,10.545,2.546,13.656,5.657l18.688,18.687C427.453,27.454,433.6,30,438,30H640z"/>
<path fill="#333333" d="M330,31c-0.256,0-0.512-0.098-0.707-0.293L320,21.414l-9.293,9.293c-0.391,0.391-1.023,0.391-1.414,0
	s-0.391-1.023,0-1.414l10-10c0.391-0.391,1.023-0.391,1.414,0l10,10c0.391,0.391,0.391,1.023,0,1.414
	C330.512,30.902,330.256,31,330,31z"/>
</svg>
