<?xml version="1.0" encoding="utf-8"?>
<!-- Generator: Adobe Illustrator 16.0.4, SVG Export Plug-In . SVG Version: 6.00 Build 0)  -->
<!DOCTYPE svg PUBLIC "-//W3C//DTD SVG 1.1//EN" "http://www.w3.org/Graphics/SVG/1.1/DTD/svg11.dtd">
<svg version="1.1" id="レイヤー_1" xmlns="http://www.w3.org/2000/svg" xmlns:xlink="http://www.w3.org/1999/xlink" x="0px"
	 y="0px" width="40px" height="34px" viewBox="0 0 40 34" enable-background="new 0 0 40 34" xml:space="preserve">
<g>
	<g>
		<g>
			<g>
				<rect fill="#333333" width="20" height="4"/>
				<rect y="10" fill="#333333" width="12" height="4"/>
				<rect y="20" fill="#333333" width="12" height="4"/>
				<rect y="30" fill="#333333" width="20" height="4"/>
			</g>
		</g>
	</g>
	<g>
		<path fill="#333333" d="M30.078,29.606c-0.527,0-1.033-0.208-1.407-0.579l-8.078-8c-0.785-0.777-0.791-2.043-0.014-2.828
			c0.777-0.786,2.044-0.791,2.828-0.014l6.657,6.593l6.515-6.579c0.776-0.787,2.044-0.791,2.828-0.014
			c0.785,0.777,0.791,2.043,0.014,2.828l-7.922,8c-0.373,0.377-0.881,0.59-1.411,0.593C30.085,29.606,30.081,29.606,30.078,29.606z"
			/>
		<path fill="#333333" d="M30.078,29.606c-1.104,0-2-0.896-2-2v-22c0-1.104,0.896-2,2-2s2,0.896,2,2v22
			C32.078,28.711,31.183,29.606,30.078,29.606z"/>
	</g>
</g>
</svg>
