<?xml version="1.0" encoding="utf-8"?>
<!-- Generator: Adobe Illustrator 16.0.4, SVG Export Plug-In . SVG Version: 6.00 Build 0)  -->
<!DOCTYPE svg PUBLIC "-//W3C//DTD SVG 1.1//EN" "http://www.w3.org/Graphics/SVG/1.1/DTD/svg11.dtd">
<svg version="1.1" id="レイヤー_1" xmlns="http://www.w3.org/2000/svg" xmlns:xlink="http://www.w3.org/1999/xlink" x="0px"
	 y="0px" width="118px" height="22px" viewBox="0 0 118 22" enable-background="new 0 0 118 22" xml:space="preserve">
<g>
	<path fill="#333333" d="M45.188,21.671c-0.117,0-0.176-0.059-0.176-0.176V0.504c0-0.117,0.059-0.176,0.176-0.176h3.179
		c0.117,0,0.176,0.059,0.176,0.176v17.827h10.063c0.117,0,0.176,0.059,0.176,0.176v2.988c0,0.117-0.059,0.176-0.176,0.176H45.188z"
		/>
	<path fill="#333333" d="M67.691,21.671c-0.117,0-0.176-0.059-0.176-0.176V0.504c0-0.117,0.059-0.176,0.176-0.176h3.179
		c0.117,0,0.176,0.059,0.176,0.176v20.991c0,0.117-0.059,0.176-0.176,0.176H67.691z"/>
	<path fill="#333333" d="M81.707,16.28c0.029-0.038,0.068-0.059,0.117-0.059s0.093,0.016,0.132,0.045
		c0.771,0.625,1.657,1.125,2.658,1.501s2.059,0.563,3.172,0.563c1.25,0,2.236-0.258,2.959-0.775
		c0.684-0.498,1.025-1.158,1.025-1.979c0-1.542-0.864-2.431-2.593-2.666h0.015c-0.244-0.029-0.477-0.059-0.695-0.088
		c-0.221-0.029-0.439-0.059-0.66-0.088c-0.219-0.029-0.444-0.061-0.674-0.095s-0.48-0.071-0.754-0.11
		c-0.918-0.127-1.736-0.359-2.453-0.696c-0.719-0.337-1.321-0.784-1.81-1.34c-0.488-0.566-0.854-1.184-1.099-1.853
		s-0.366-1.399-0.366-2.19c0-1.855,0.615-3.364,1.846-4.526c1.24-1.182,2.964-1.772,5.171-1.772c0.654,0,1.291,0.056,1.912,0.168
		c0.619,0.112,1.22,0.266,1.801,0.461s1.138,0.427,1.67,0.696s1.043,0.564,1.531,0.886c0.098,0.068,0.112,0.151,0.044,0.249
		l-1.772,2.622c-0.068,0.088-0.146,0.103-0.234,0.044c-0.762-0.479-1.572-0.862-2.432-1.15s-1.748-0.432-2.666-0.432
		c-0.469,0-0.903,0.056-1.304,0.168s-0.762,0.295-1.084,0.549c-0.635,0.459-0.952,1.157-0.952,2.095c0,0.537,0.215,1.06,0.645,1.567
		c0.215,0.234,0.503,0.432,0.864,0.593s0.806,0.281,1.333,0.359c0.283,0.049,0.615,0.1,0.996,0.154s0.83,0.11,1.348,0.168
		c2.002,0.244,3.486,0.981,4.453,2.212c0.967,1.201,1.45,2.539,1.45,4.013c0,1.974-0.688,3.516-2.065,4.629
		c-1.387,1.095-3.213,1.641-5.479,1.641c-3.193,0-5.908-0.976-8.145-2.93c-0.039-0.029-0.059-0.067-0.059-0.117
		c0-0.048,0.015-0.092,0.044-0.131L81.707,16.28z"/>
	<path fill="#333333" d="M108.793,21.671c-0.117,0-0.176-0.059-0.176-0.176V3.507h-5.581c-0.117,0-0.176-0.059-0.176-0.176V0.504
		c0-0.117,0.059-0.176,0.176-0.176h14.678c0.117,0,0.176,0.059,0.176,0.176v2.827c0,0.117-0.059,0.176-0.176,0.176h-5.566v17.988
		c0,0.117-0.059,0.176-0.176,0.176H108.793z"/>
</g>
<path fill="#333333" d="M12.11,18.327c-0.512,0-1.023-0.195-1.414-0.586l-10-10c-0.781-0.781-0.781-2.047,0-2.828
	c0.78-0.781,2.047-0.781,2.828,0l8.586,8.585l8.586-8.585c0.78-0.781,2.048-0.781,2.828,0c0.781,0.781,0.781,2.047,0,2.828l-10,10
	C13.134,18.132,12.622,18.327,12.11,18.327z"/>
</svg>
