<?xml version="1.0" encoding="utf-8"?>
<!-- Generator: Adobe Illustrator 16.0.4, SVG Export Plug-In . SVG Version: 6.00 Build 0)  -->
<!DOCTYPE svg PUBLIC "-//W3C//DTD SVG 1.1//EN" "http://www.w3.org/Graphics/SVG/1.1/DTD/svg11.dtd">
<svg version="1.1" id="レイヤー_1" xmlns="http://www.w3.org/2000/svg" xmlns:xlink="http://www.w3.org/1999/xlink" x="0px"
	 y="0px" width="184px" height="22px" viewBox="0 0 184 22" enable-background="new 0 0 184 22" xml:space="preserve">
<g>
	<path fill="#FFFFFF" d="M10.902,0.478c-5.894,0-10.689,4.688-10.689,10.451c0,5.841,4.721,10.594,10.522,10.594
		S21.256,16.802,21.256,11C21.256,5.296,16.515,0.478,10.902,0.478z M18.136,11c0,4.081-3.32,7.4-7.401,7.4
		c-4.15,0-7.401-3.281-7.401-7.472c0-4.11,3.314-7.33,7.544-7.33C14.812,3.599,18.136,6.988,18.136,11z"/>
	<path fill="#FFFFFF" d="M103.048,16.012c-0.183,0.372-0.772,0.371-0.954,0L94.613,0.668h-2.826v20.663h3.121V10.7
		c0-0.312,0.222-0.473,0.411-0.518c0.19-0.045,0.46,0.004,0.597,0.284l5.246,10.74l0.061,0.125h2.698l5.307-10.865
		c0.137-0.28,0.404-0.329,0.597-0.284c0.189,0.044,0.411,0.206,0.411,0.518v10.631h3.121V0.668h-2.827L103.048,16.012z"/>
	<path fill="#FFFFFF" d="M128.947,0.478c-5.894,0-10.688,4.688-10.688,10.451c0,5.841,4.72,10.594,10.521,10.594
		S139.302,16.802,139.302,11C139.302,5.296,134.56,0.478,128.947,0.478z M136.181,11c0,4.081-3.32,7.4-7.401,7.4
		c-4.15,0-7.401-3.281-7.401-7.472c0-4.11,3.314-7.33,7.545-7.33C132.857,3.599,136.181,6.988,136.181,11z"/>
	<path fill="#FFFFFF" d="M158.703,14.214c0,0.279-0.186,0.442-0.358,0.502c-0.174,0.06-0.42,0.045-0.591-0.176L147.001,0.753
		l-0.066-0.085h-2.72v20.663h3.121V7.766c0-0.279,0.186-0.442,0.358-0.502s0.419-0.045,0.592,0.176l10.816,13.892h2.72V0.668h-3.12
		V14.214z"/>
	<path fill="#FFFFFF" d="M180.824,3.869c-2-2.035-4.769-3.201-7.596-3.201h-5.615v20.663h5.845c5.601,0,10.234-4.555,10.329-10.154
		C183.833,8.454,182.781,5.858,180.824,3.869z M180.662,11.278c-0.145,3.822-3.458,6.932-7.387,6.932h-2.086
		c-0.251,0-0.455-0.204-0.455-0.455V4.245c0-0.251,0.204-0.456,0.455-0.456h2.269c1.974,0,3.817,0.786,5.191,2.212
		C180.022,7.427,180.737,9.301,180.662,11.278z"/>
	<path fill="#FFFFFF" d="M67.567,12.429h4.647c0.293,0,0.531,0.238,0.531,0.53v2.779c0,0.385-0.164,0.742-0.451,0.979
		c-1.325,1.101-2.953,1.683-4.707,1.683c-2.158,0-4.206-0.941-5.617-2.585c-1.408-1.641-2.026-3.82-1.695-5.979
		c0.558-3.646,3.773-6.311,7.502-6.235c2.037,0.049,3.858,0.875,5.268,2.388l0.156,0.167l2.21-2.209l-0.147-0.156
		c-2.306-2.439-5.555-3.618-8.904-3.245c-4.838,0.545-8.722,4.462-9.234,9.313c-0.32,3.021,0.618,5.924,2.64,8.172
		c1.996,2.218,4.848,3.491,7.822,3.491c3.151,0,6.103-1.384,8.098-3.794l0.18-0.218V9.308h-8.299V12.429z"/>
	<rect x="48.468" y="0.668" fill="#FFFFFF" width="3.121" height="20.663"/>
	<rect x="82.084" y="0.668" fill="#FFFFFF" width="3.12" height="20.663"/>
	<path fill="#FFFFFF" d="M36.842,12.43h0.502c3.242,0,5.88-2.639,5.88-5.881c0-3.242-2.638-5.88-5.88-5.88H26.171v20.663h3.121
		v-8.372c0-0.292,0.238-0.53,0.53-0.53H31.2c0.398,0,0.767,0.18,1.011,0.494l6.547,8.408h3.939l-6.274-8.045
		c-0.127-0.163-0.149-0.373-0.058-0.559C36.457,12.54,36.634,12.43,36.842,12.43z M40.104,6.548c0,1.521-1.238,2.759-2.759,2.759
		h-7.522c-0.292,0-0.53-0.238-0.53-0.53V4.32c0-0.292,0.238-0.531,0.53-0.531h7.522C38.866,3.789,40.104,5.027,40.104,6.548z"/>
</g>
</svg>
