<?xml version="1.0" encoding="utf-8"?>
<!-- Generator: Adobe Illustrator 16.0.4, SVG Export Plug-In . SVG Version: 6.00 Build 0)  -->
<!DOCTYPE svg PUBLIC "-//W3C//DTD SVG 1.1//EN" "http://www.w3.org/Graphics/SVG/1.1/DTD/svg11.dtd">
<svg version="1.1" id="レイヤー_1" xmlns="http://www.w3.org/2000/svg" xmlns:xlink="http://www.w3.org/1999/xlink" x="0px"
	 y="0px" width="172px" height="134px" viewBox="0 -0.5 172 134" enable-background="new 0 -0.5 172 134" xml:space="preserve">
<g>
	<g>
		<g>
			<path fill="#FFFFFF" d="M65.048,0.021c1.948-1.542,4.873-1.268,6.499,0.611l11.102,12.821c1.625,1.879,0.925,3.348-1.56,3.264
				l-31.094-1.049c-2.483-0.084-2.921-1.415-0.973-2.957L65.048,0.021z"/>
		</g>
		<g>
			<path fill="#FFFFFF" d="M80.818,49.863c-2.34-0.834-3.1-3.19-1.688-5.235l10.438-15.116c1.412-2.045,3.562-1.946,4.783,0.22
				l15.334,27.27c1.217,2.166,0.299,3.255-2.041,2.421L80.818,49.863z"/>
		</g>
		<g>
			<path fill="#FFFFFF" d="M65.495,48.144c1.836,1.674,3.325,5.077,3.312,7.562l-0.113,17.83c-0.016,2.485-0.895,2.679-1.952,0.431
				L48.296,34.798c-1.059-2.248-0.419-2.718,1.414-1.044L65.495,48.144z"/>
		</g>
		<g>
			<path fill="#FFFFFF" d="M103.747,21.406c-2.308-0.922-2.397-2.629-0.202-3.792l11.545-6.12c2.196-1.164,4.83-0.263,5.854,2.001
				l6.301,13.93c1.023,2.264-0.026,3.362-2.334,2.44L103.747,21.406z"/>
		</g>
	</g>
	<g>
		<g>
			<path fill="#231815" d="M73.902,41.597c-1.412,2.044-4.066,2.348-5.906,0.674l-19.405-17.69
				c-1.835-1.674-1.307-2.975,1.177-2.892l32.501,1.097c2.483,0.083,3.36,1.825,1.949,3.87L73.902,41.597z"/>
		</g>
		<g>
			<path fill="#231815" d="M74.812,58.645c0.016-2.485,1.942-3.836,4.285-3.002l27.667,9.861c2.342,0.834,2.461,2.471,0.266,3.635
				L78.63,84.201c-2.194,1.164-3.979,0.084-3.96-2.401L74.812,58.645z"/>
		</g>
		<g>
			<path fill="#231815" d="M97.098,14.213c-2.195,1.164-5.322,0.579-6.949-1.3L80.311,1.549C78.684-0.329,79.331-1.4,81.75-0.83
				l25.865,6.099c2.419,0.57,2.602,1.989,0.406,3.153L97.098,14.213z"/>
		</g>
		<g>
			<path fill="#231815" d="M120.675,56.385c-1.215,2.167-3.204,2.17-4.422,0.004l-14.709-26.158c-1.22-2.166-0.325-3.192,1.985-2.28
				l22.891,9.028c2.312,0.912,3.209,3.431,1.994,5.599L120.675,56.385z"/>
		</g>
	</g>
	<g>
		<path fill="#231815" d="M11.39,111.584c-5.495,0-9.966,4.372-9.966,9.744c0,5.445,4.4,9.877,9.81,9.877
			c5.41,0,9.811-4.4,9.811-9.811C21.044,116.077,16.626,111.584,11.39,111.584z M11.367,114.495c3.668,0,6.767,3.159,6.767,6.899
			c0,3.806-3.096,6.898-6.9,6.898c-3.869,0-6.897-3.061-6.897-6.967C4.336,117.496,7.423,114.495,11.367,114.495z"/>
		<path fill="#231815" d="M97.301,126.066c-0.171,0.35-0.72,0.35-0.89,0l-6.976-14.305H86.8v19.266h2.909v-9.912
			c0-0.29,0.209-0.441,0.384-0.482c0.175-0.042,0.429,0.006,0.556,0.266l4.949,10.129h2.516l4.947-10.129
			c0.129-0.26,0.379-0.308,0.559-0.266c0.177,0.041,0.385,0.192,0.385,0.482v9.912h2.907v-19.266h-2.636L97.301,126.066z"/>
		<path fill="#231815" d="M121.445,111.584c-5.494,0-9.965,4.372-9.965,9.744c0,5.445,4.399,9.877,9.812,9.877
			c5.405,0,9.81-4.4,9.81-9.811C131.102,116.077,126.68,111.584,121.445,111.584z M128.191,121.395c0,3.808-3.096,6.9-6.897,6.9
			c-3.872,0-6.903-3.061-6.903-6.967c0-3.832,3.09-6.833,7.034-6.833C125.093,114.495,128.191,117.654,128.191,121.395z"/>
		<path fill="#231815" d="M149.188,124.393c0,0.26-0.172,0.412-0.334,0.467c-0.162,0.058-0.391,0.043-0.551-0.164l-10.023-12.854
			l-0.062-0.078h-2.534v19.264h2.908V118.38c0-0.26,0.174-0.412,0.334-0.468c0.161-0.057,0.393-0.042,0.553,0.164l10.021,12.872
			l0.062,0.079h2.535v-19.267h-2.908v12.632H149.188z"/>
		<path fill="#231815" d="M169.812,114.746c-1.864-1.896-4.445-2.982-7.082-2.982h-5.235v19.264h5.448
			c5.226,0,9.543-4.245,9.632-9.467C172.618,119.021,171.639,116.602,169.812,114.746z M169.662,121.654
			c-0.135,3.562-3.225,6.463-6.889,6.463h-1.943c-0.232,0-0.426-0.19-0.426-0.426v-12.596c0-0.232,0.191-0.425,0.426-0.425h2.113
			c1.842,0,3.562,0.731,4.842,2.062C169.064,118.062,169.73,119.812,169.662,121.654z"/>
		<path fill="#231815" d="M64.22,122.729h4.334c0.271,0,0.493,0.223,0.493,0.494l0.001,2.592c0,0.357-0.152,0.69-0.42,0.912
			c-1.236,1.026-2.751,1.568-4.39,1.568c-2.012,0-3.92-0.879-5.236-2.41c-1.312-1.529-1.889-3.562-1.58-5.574
			c0.512-3.344,3.43-5.814,6.827-5.814c0.055,0,0.11,0.001,0.169,0.003c1.896,0.046,3.597,0.813,4.91,2.228l0.146,0.154l2.062-2.061
			l-0.138-0.146c-2.147-2.274-5.175-3.376-8.302-3.024c-4.51,0.511-8.131,4.16-8.609,8.685c-0.298,2.815,0.575,5.521,2.461,7.618
			c1.861,2.066,4.52,3.255,7.292,3.255c2.939,0,5.689-1.289,7.551-3.536l0.17-0.203v-7.646h-7.74L64.22,122.729L64.22,122.729z"/>
		<rect x="46.414" y="111.764" fill="#231815" width="2.909" height="19.264"/>
		<rect x="77.755" y="111.764" fill="#231815" width="2.909" height="19.264"/>
		<path fill="#231815" d="M35.574,122.729h0.47c3.021,0,5.48-2.461,5.48-5.481s-2.459-5.481-5.48-5.481H25.628v19.266h2.906v-7.807
			c0-0.271,0.223-0.494,0.495-0.494l1.284,0.002c0.373,0,0.716,0.166,0.943,0.459l6.104,7.84h3.672l-5.849-7.502
			c-0.119-0.15-0.14-0.346-0.055-0.521C35.215,122.832,35.382,122.729,35.574,122.729z M36.044,119.816h-7.015
			c-0.272,0-0.495-0.221-0.495-0.494v-4.155c0-0.272,0.223-0.494,0.495-0.494h7.015c1.418,0,2.571,1.153,2.571,2.572
			S37.462,119.816,36.044,119.816z"/>
	</g>
</g>
</svg>
