<?xml version="1.0" encoding="utf-8"?>
<!-- Generator: Adobe Illustrator 16.0.4, SVG Export Plug-In . SVG Version: 6.00 Build 0)  -->
<!DOCTYPE svg PUBLIC "-//W3C//DTD SVG 1.1//EN" "http://www.w3.org/Graphics/SVG/1.1/DTD/svg11.dtd">
<svg version="1.1" id="レイヤー_1" xmlns="http://www.w3.org/2000/svg" xmlns:xlink="http://www.w3.org/1999/xlink" x="0px"
	 y="0px" width="246px" height="40px" viewBox="0 0 246 40" enable-background="new 0 0 246 40" xml:space="preserve">
<g>
	<g>
		<g>
			<path fill="#FFFFFF" d="M8.348,0.659c0.901-0.713,2.253-0.586,3.005,0.283l5.133,5.929c0.752,0.869,0.428,1.548-0.72,1.509
				L1.387,7.895C0.238,7.856,0.036,7.24,0.937,6.527L8.348,0.659z"/>
		</g>
		<g>
			<path fill="#FFFFFF" d="M15.642,23.709c-1.083-0.387-1.434-1.476-0.781-2.421l4.827-6.991c0.653-0.945,1.648-0.9,2.211,0.102
				l7.092,12.611c0.563,1.002,0.138,1.506-0.944,1.12L15.642,23.709z"/>
		</g>
		<g>
			<path fill="#FFFFFF" d="M8.555,22.914c0.85,0.774,1.538,2.348,1.531,3.497l-0.052,8.245c-0.007,1.149-0.414,1.239-0.903,0.199
				l-8.53-18.114c-0.49-1.04-0.195-1.257,0.654-0.482L8.555,22.914z"/>
		</g>
		<g>
			<path fill="#FFFFFF" d="M26.245,10.548c-1.067-0.426-1.109-1.216-0.094-1.754l5.34-2.83c1.015-0.539,2.233-0.122,2.707,0.925
				l2.913,6.442c0.474,1.047-0.012,1.555-1.079,1.128L26.245,10.548z"/>
		</g>
	</g>
	<g>
		<g>
			<path fill="#231815" d="M12.443,19.886c-0.653,0.946-1.882,1.086-2.731,0.312l-8.974-8.181c-0.849-0.774-0.604-1.376,0.544-1.337
				l15.031,0.507c1.148,0.039,1.554,0.844,0.901,1.79L12.443,19.886z"/>
		</g>
		<g>
			<path fill="#231815" d="M12.863,27.77c0.007-1.149,0.899-1.773,1.981-1.388l12.795,4.561c1.083,0.386,1.137,1.142,0.122,1.681
				l-13.133,6.966c-1.015,0.539-1.84,0.039-1.833-1.11L12.863,27.77z"/>
		</g>
		<g>
			<path fill="#231815" d="M23.17,7.222c-1.016,0.538-2.462,0.268-3.214-0.601l-4.55-5.256c-0.752-0.869-0.453-1.364,0.666-1.1
				l11.961,2.82c1.119,0.264,1.203,0.92,0.188,1.458L23.17,7.222z"/>
		</g>
		<g>
			<path fill="#231815" d="M34.073,26.725c-0.562,1.003-1.482,1.004-2.045,0.002L25.225,14.63c-0.563-1.001-0.149-1.476,0.919-1.055
				L36.73,17.75c1.069,0.422,1.484,1.587,0.922,2.589L34.073,26.725z"/>
		</g>
	</g>
</g>
<g>
	<path fill="#231815" d="M72.882,8.433c-5.894,0-10.689,4.688-10.689,10.451c0,5.841,4.721,10.593,10.522,10.593
		s10.522-4.721,10.522-10.522C83.237,13.251,78.495,8.433,72.882,8.433z M80.116,18.955c0,4.081-3.32,7.401-7.401,7.401
		c-4.15,0-7.401-3.281-7.401-7.472c0-4.11,3.314-7.33,7.544-7.33C76.792,11.554,80.116,14.943,80.116,18.955z"/>
	<path fill="#231815" d="M165.028,23.967c-0.183,0.372-0.772,0.371-0.954,0l-7.48-15.344h-2.827v20.663h3.121V18.655
		c0-0.312,0.222-0.474,0.411-0.518c0.19-0.045,0.46,0.004,0.597,0.284l5.246,10.74l0.061,0.125h2.698l5.307-10.865
		c0.138-0.28,0.404-0.329,0.597-0.284c0.189,0.044,0.411,0.206,0.411,0.518v10.631h3.121V8.623h-2.826L165.028,23.967z"/>
	<path fill="#231815" d="M190.927,8.433c-5.894,0-10.688,4.688-10.688,10.451c0,5.841,4.72,10.593,10.521,10.593
		s10.522-4.721,10.522-10.522C201.282,13.251,196.54,8.433,190.927,8.433z M198.161,18.955c0,4.081-3.32,7.401-7.401,7.401
		c-4.15,0-7.401-3.281-7.401-7.472c0-4.11,3.314-7.33,7.545-7.33C194.837,11.554,198.161,14.943,198.161,18.955z"/>
	<path fill="#231815" d="M220.683,22.169c0,0.279-0.186,0.442-0.358,0.502c-0.174,0.06-0.419,0.044-0.591-0.176L208.981,8.708
		l-0.066-0.085h-2.719v20.663h3.12V15.721c0-0.279,0.186-0.442,0.358-0.502s0.42-0.045,0.592,0.176l10.817,13.892h2.72V8.623h-3.121
		V22.169z"/>
	<path fill="#231815" d="M242.804,11.824c-2-2.034-4.769-3.201-7.596-3.201h-5.615v20.663h5.845c5.601,0,10.234-4.556,10.329-10.154
		C245.813,16.409,244.761,13.813,242.804,11.824z M242.642,19.233c-0.144,3.823-3.458,6.932-7.387,6.932h-2.085
		c-0.252,0-0.456-0.204-0.456-0.455V12.2c0-0.251,0.204-0.456,0.456-0.456h2.268c1.975,0,3.818,0.786,5.191,2.212
		C242.002,15.382,242.717,17.256,242.642,19.233z"/>
	<path fill="#231815" d="M129.547,20.384h4.648c0.292,0,0.53,0.238,0.53,0.53v2.779c0,0.385-0.164,0.742-0.45,0.979
		c-1.325,1.102-2.953,1.684-4.707,1.684c-2.158,0-4.206-0.941-5.616-2.586c-1.409-1.641-2.026-3.819-1.696-5.979
		c0.558-3.646,3.773-6.311,7.503-6.235c2.036,0.049,3.857,0.875,5.268,2.388l0.156,0.167l2.21-2.209l-0.147-0.156
		c-2.306-2.439-5.555-3.618-8.904-3.244c-4.838,0.545-8.721,4.462-9.234,9.313c-0.319,3.021,0.618,5.924,2.64,8.172
		c1.997,2.218,4.848,3.49,7.822,3.49c3.151,0,6.103-1.383,8.098-3.793l0.181-0.218v-8.204h-8.3V20.384z"/>
	<rect x="110.449" y="8.623" fill="#231815" width="3.121" height="20.663"/>
	<rect x="144.064" y="8.623" fill="#231815" width="3.12" height="20.663"/>
	<path fill="#231815" d="M98.822,20.385h0.502c3.242,0,5.88-2.639,5.88-5.881c0-3.242-2.638-5.88-5.88-5.88H88.151v20.663h3.121
		v-8.372c0-0.292,0.238-0.53,0.531-0.53h1.378c0.398,0,0.767,0.18,1.012,0.494l6.547,8.408h3.938l-6.274-8.045
		c-0.127-0.164-0.149-0.373-0.059-0.559C98.437,20.496,98.615,20.385,98.822,20.385z M102.084,14.503
		c0,1.521-1.238,2.759-2.76,2.759h-7.522c-0.292,0-0.531-0.238-0.531-0.53v-4.458c0-0.292,0.238-0.53,0.531-0.53h7.522
		C100.846,11.744,102.084,12.982,102.084,14.503z"/>
</g>
</svg>
