<?xml version="1.0" encoding="utf-8"?>
<!-- Generator: Adobe Illustrator 16.0.4, SVG Export Plug-In . SVG Version: 6.00 Build 0)  -->
<!DOCTYPE svg PUBLIC "-//W3C//DTD SVG 1.1//EN" "http://www.w3.org/Graphics/SVG/1.1/DTD/svg11.dtd">
<svg version="1.1" id="レイヤー_1" xmlns="http://www.w3.org/2000/svg" xmlns:xlink="http://www.w3.org/1999/xlink" x="0px"
	 y="0px" width="220px" height="80px" viewBox="0 0 220 80" enable-background="new 0 0 220 80" xml:space="preserve">
<g>
	<path fill="#FFFFFF" d="M40,80C17.908,80,0,62.092,0,40S17.908,0,40,0h140c22.09,0,40,17.909,40,40c0,22.092-17.91,40-40,40H40z"/>
	<path fill="#969B99" d="M180,2c20.953,0,38,17.047,38,38s-17.047,38-38,38H40C19.047,78,2,60.953,2,40S19.047,2,40,2H180 M180,0H40
		C17.908,0,0,17.908,0,40s17.908,40,40,40h140c22.09,0,40-17.908,40-40C220,17.909,202.09,0,180,0L180,0z"/>
</g>
<g>
	<path fill="#969B99" d="M67.336,48.012V30.938h6.68c1.461,0,2.617,0.375,3.469,1.125c0.477,0.414,0.881,0.934,1.213,1.559
		s0.498,1.32,0.498,2.086c0,1.102-0.295,2.076-0.885,2.924s-1.4,1.447-2.432,1.799l3.961,7.582h-3.07l-3.527-7.289h-3.316v7.289
		H67.336z M69.926,33.234v5.18h3.914c0.969,0,1.695-0.27,2.18-0.809s0.727-1.172,0.727-1.898c0-0.867-0.289-1.516-0.867-1.945
		c-0.484-0.352-1.113-0.527-1.887-0.527H69.926z"/>
	<path fill="#969B99" d="M86.772,48.012V30.938h10.922v2.449h-8.332v4.863h7.102v2.309h-7.102v5.016h8.332v2.438H86.772z"/>
	<path fill="#969B99" d="M108.775,48.012l-5.637-17.074h2.73l3.891,12.996h0.047l3.891-12.996h2.73l-5.637,17.074H108.775z"/>
	<path fill="#969B99" d="M122.74,42.234V30.938h2.59v11.004c0,1.18,0.334,2.08,1.002,2.701s1.494,0.932,2.479,0.932
		s1.811-0.311,2.479-0.932s1.002-1.521,1.002-2.701V30.938h2.59v11.297c0,1.781-0.59,3.213-1.77,4.295s-2.613,1.623-4.301,1.623
		c-1.695,0-3.131-0.541-4.307-1.623S122.74,44.016,122.74,42.234z"/>
	<path fill="#969B99" d="M142.962,48.012V30.938h10.922v2.449h-8.332v4.863h7.102v2.309h-7.102v5.016h8.332v2.438H142.962z"/>
</g>
</svg>
