<?xml version="1.0" encoding="utf-8"?>
<!-- Generator: Adobe Illustrator 16.0.4, SVG Export Plug-In . SVG Version: 6.00 Build 0)  -->
<!DOCTYPE svg PUBLIC "-//W3C//DTD SVG 1.1//EN" "http://www.w3.org/Graphics/SVG/1.1/DTD/svg11.dtd">
<svg version="1.1" id="レイヤー_1" xmlns="http://www.w3.org/2000/svg" xmlns:xlink="http://www.w3.org/1999/xlink" x="0px"
	 y="0px" width="80px" height="80px" viewBox="0 0 80 80" enable-background="new 0 0 80 80" xml:space="preserve">
<g>
	<circle fill="#333333" cx="40" cy="40" r="40"/>
	<g>
		<path fill="#FFFFFF" d="M55.999,53.537c0,0.668-0.243,1.245-0.729,1.731C54.783,55.757,54.204,56,53.541,56
			c-0.691,0-1.271-0.243-1.734-0.731l-6.594-6.577c-2.295,1.591-4.855,2.386-7.673,2.386c-1.832,0-3.584-0.355-5.257-1.068
			c-1.673-0.71-3.117-1.673-4.327-2.883c-1.216-1.213-2.174-2.655-2.889-4.328c-0.71-1.673-1.065-3.425-1.065-5.259
			c0-1.832,0.355-3.587,1.065-5.26c0.715-1.673,1.673-3.114,2.889-4.327c1.21-1.21,2.654-2.173,4.327-2.883
			C33.955,24.355,35.708,24,37.54,24c1.832,0,3.584,0.355,5.257,1.068c1.673,0.71,3.117,1.673,4.327,2.883
			c1.216,1.213,2.173,2.654,2.888,4.327c0.711,1.673,1.066,3.428,1.066,5.26c0,2.82-0.795,5.378-2.384,7.673l6.594,6.596
			C55.766,52.282,55.999,52.859,55.999,53.537z M43.624,43.625c1.687-1.687,2.528-3.715,2.528-6.086s-0.842-4.4-2.528-6.087
			c-1.683-1.685-3.715-2.528-6.084-2.528c-2.374,0-4.402,0.843-6.084,2.528c-1.688,1.687-2.533,3.715-2.533,6.087
			s0.846,4.4,2.533,6.086c1.682,1.685,3.71,2.528,6.084,2.528C39.909,46.153,41.941,45.31,43.624,43.625z"/>
	</g>
</g>
</svg>
