<?xml version="1.0" encoding="utf-8"?>
<!-- Generator: Adobe Illustrator 16.0.4, SVG Export Plug-In . SVG Version: 6.00 Build 0)  -->
<!DOCTYPE svg PUBLIC "-//W3C//DTD SVG 1.1//EN" "http://www.w3.org/Graphics/SVG/1.1/DTD/svg11.dtd">
<svg version="1.1" id="レイヤー_1" xmlns="http://www.w3.org/2000/svg" xmlns:xlink="http://www.w3.org/1999/xlink" x="0px"
	 y="0px" width="60px" height="60px" viewBox="0 0 60 60" enable-background="new 0 0 60 60" xml:space="preserve">
<g>
	<path fill="#333333" d="M60,50c0,5.5-4.5,10-10,10H10C4.5,60,0,55.5,0,50V10C0,4.5,4.5,0,10,0h40c5.5,0,10,4.5,10,10V50z"/>
</g>
<g>
	<path fill="#FFFFFF" d="M41.999,40.152c0,0.502-0.183,0.935-0.547,1.299C41.088,41.817,40.653,42,40.155,42
		c-0.519,0-0.953-0.183-1.3-0.549l-4.945-4.933c-1.722,1.193-3.643,1.789-5.755,1.789c-1.374,0-2.688-0.267-3.943-0.801
		c-1.255-0.533-2.338-1.255-3.246-2.163c-0.911-0.909-1.629-1.99-2.166-3.245c-0.532-1.255-0.799-2.569-0.799-3.945
		c0-1.374,0.267-2.69,0.799-3.945c0.537-1.255,1.255-2.336,2.166-3.246c0.908-0.908,1.991-1.63,3.246-2.163
		C25.466,18.267,26.781,18,28.155,18c1.374,0,2.688,0.267,3.943,0.801c1.255,0.533,2.338,1.255,3.246,2.163
		c0.91,0.91,1.629,1.991,2.166,3.246c0.532,1.255,0.799,2.571,0.799,3.945c0,2.115-0.596,4.034-1.788,5.755l4.946,4.947
		C41.824,39.212,41.999,39.645,41.999,40.152z M32.718,32.719c1.266-1.265,1.896-2.786,1.896-4.565s-0.631-3.3-1.896-4.565
		c-1.262-1.264-2.786-1.896-4.563-1.896c-1.781,0-3.302,0.633-4.563,1.896c-1.265,1.265-1.9,2.786-1.9,4.565s0.635,3.3,1.9,4.565
		c1.262,1.264,2.783,1.896,4.563,1.896C29.932,34.615,31.456,33.982,32.718,32.719z"/>
</g>
</svg>
