<?xml version="1.0" encoding="utf-8"?>
<!-- Generator: Adobe Illustrator 16.0.4, SVG Export Plug-In . SVG Version: 6.00 Build 0)  -->
<!DOCTYPE svg PUBLIC "-//W3C//DTD SVG 1.1//EN" "http://www.w3.org/Graphics/SVG/1.1/DTD/svg11.dtd">
<svg version="1.1" id="レイヤー_1" xmlns="http://www.w3.org/2000/svg" xmlns:xlink="http://www.w3.org/1999/xlink" x="0px"
	 y="0px" width="50px" height="50px" viewBox="0 0 50 50" enable-background="new 0 0 50 50" xml:space="preserve">
<g>
	<circle fill="#FFFFFF" cx="25" cy="25" r="25"/>
	<path fill="#989898" d="M16.666,13.889v22.223h6.111v-6.667h4.445v6.667h6.111V13.889H16.666z M30.555,24.444H19.445v-1.111h11.109
		V24.444z M30.555,21.111H19.445V20h11.109V21.111z M30.555,17.778H19.445v-1.111h11.109V17.778z"/>
	<g>
		<path fill="#333333" d="M41.945,18.889c-5,0.552-5.374,1-5.834,7c-0.461-6-0.834-6.448-5.834-7c5-0.552,5.373-1,5.834-7
			C36.571,17.889,36.945,18.336,41.945,18.889z"/>
	</g>
</g>
</svg>
