<?xml version="1.0" encoding="utf-8"?>
<!-- Generator: Adobe Illustrator 16.0.4, SVG Export Plug-In . SVG Version: 6.00 Build 0)  -->
<!DOCTYPE svg PUBLIC "-//W3C//DTD SVG 1.1//EN" "http://www.w3.org/Graphics/SVG/1.1/DTD/svg11.dtd">
<svg version="1.1" id="レイヤー_1" xmlns="http://www.w3.org/2000/svg" xmlns:xlink="http://www.w3.org/1999/xlink" x="0px"
	 y="0px" width="50px" height="58px" viewBox="0 0 50 58" enable-background="new 0 0 50 58" xml:space="preserve">
<g>
	<path fill="#969B99" d="M34.606,0.5c3.923,0,7.279,0.992,10.067,2.974c2.788,1.983,4.183,4.385,4.183,7.205v28.5
		c0,2.757-1.331,5.111-3.991,7.062c-2.662,1.951-5.9,2.979-9.718,3.085l6.775,6.426c0.339,0.318,0.424,0.689,0.255,1.113
		c-0.171,0.424-0.488,0.637-0.955,0.637H7.633c-0.466,0-0.785-0.213-0.954-0.637s-0.085-0.795,0.255-1.113l6.775-6.426
		c-3.817-0.105-7.057-1.134-9.717-3.085C1.33,44.289,0,41.935,0,39.178v-28.5c0-2.82,1.394-5.222,4.183-7.205
		C6.971,1.491,10.326,0.5,14.25,0.5H34.606z M5.566,40.736c0.997,0.997,2.195,1.495,3.595,1.495c1.399,0,2.597-0.498,3.594-1.495
		c0.997-0.996,1.495-2.194,1.495-3.594c0-1.4-0.499-2.598-1.495-3.595c-0.997-0.996-2.194-1.495-3.594-1.495
		c-1.4,0-2.598,0.499-3.595,1.495c-0.997,0.997-1.495,2.194-1.495,3.595C4.071,38.542,4.569,39.74,5.566,40.736z M22.393,24.928
		V8.642H5.089v16.286H22.393z M44.785,24.928V8.642H26.464v16.286H44.785z M36.102,40.736c0.997,0.997,2.195,1.495,3.595,1.495
		s2.597-0.498,3.594-1.495c0.997-0.996,1.495-2.194,1.495-3.594c0-1.4-0.498-2.598-1.495-3.595
		c-0.997-0.996-2.194-1.495-3.594-1.495s-2.598,0.499-3.595,1.495c-0.997,0.997-1.495,2.194-1.495,3.595
		C34.606,38.542,35.104,39.74,36.102,40.736z"/>
</g>
</svg>
