<?xml version="1.0" encoding="utf-8"?>
<!-- Generator: Adobe Illustrator 16.0.4, SVG Export Plug-In . SVG Version: 6.00 Build 0)  -->
<!DOCTYPE svg PUBLIC "-//W3C//DTD SVG 1.1//EN" "http://www.w3.org/Graphics/SVG/1.1/DTD/svg11.dtd">
<svg version="1.1" id="レイヤー_1" xmlns="http://www.w3.org/2000/svg" xmlns:xlink="http://www.w3.org/1999/xlink" x="0px"
	 y="0px" width="80px" height="80px" viewBox="0 0 80 80" enable-background="new 0 0 80 80" xml:space="preserve">
<circle fill="#333333" cx="40" cy="40" r="40"/>
<g>
	<path fill="#FFFFFF" d="M46.822,20.899c2.629,0,4.878,0.665,6.747,1.994c1.868,1.329,2.803,2.938,2.803,4.828v19.101
		c0,1.848-0.892,3.426-2.675,4.733c-1.785,1.308-3.955,1.997-6.514,2.067l4.541,4.307c0.228,0.213,0.284,0.461,0.171,0.746
		c-0.114,0.284-0.327,0.426-0.64,0.426H28.744c-0.313,0-0.526-0.142-0.64-0.426c-0.114-0.285-0.057-0.533,0.171-0.746l4.54-4.307
		c-2.558-0.07-4.729-0.76-6.512-2.067c-1.784-1.308-2.675-2.886-2.675-4.733V27.721c0-1.89,0.934-3.499,2.803-4.828
		c1.869-1.329,4.118-1.994,6.747-1.994H46.822z M27.358,47.866c0.667,0.668,1.471,1.002,2.409,1.002c0.938,0,1.74-0.334,2.409-1.002
		c0.668-0.668,1.002-1.471,1.002-2.409c0-0.938-0.334-1.74-1.002-2.408c-0.668-0.668-1.471-1.002-2.409-1.002
		c-0.938,0-1.742,0.334-2.409,1.002c-0.668,0.668-1.002,1.471-1.002,2.408C26.356,46.396,26.69,47.198,27.358,47.866z
		 M38.636,37.271V26.356H27.038v10.915H38.636z M53.644,37.271V26.356H41.364v10.915H53.644z M47.824,47.866
		c0.668,0.668,1.471,1.002,2.408,1.002s1.74-0.334,2.409-1.002c0.667-0.668,1.002-1.471,1.002-2.409c0-0.938-0.335-1.74-1.002-2.408
		c-0.669-0.668-1.472-1.002-2.409-1.002s-1.74,0.334-2.408,1.002c-0.669,0.668-1.002,1.471-1.002,2.408
		C46.822,46.396,47.155,47.198,47.824,47.866z"/>
</g>
</svg>
